<svg width="70" height="95" fill="none" xmlns="http://www.w3.org/2000/svg"><g clip-path="url(#clip0)"><path d="M69.422 4.31v86.396a4.306 4.306 0 01-4.31 4.31H4.31C1.926 95 0 93.074 0 90.706V4.31A4.306 4.306 0 014.31 0h60.818a4.302 4.302 0 014.294 4.31z" fill="url(#paint0_linear)"/><path d="M65 7.947v79.106C65 89.236 63.307 91 61.213 91H7.787C5.693 90.986 4 89.222 4 87.053V7.947C4 5.764 5.693 4 7.787 4h53.44C63.306 4 65 5.764 65 7.947z" fill="url(#paint1_linear)"/><path d="M26.872 18.252v3.931a.499.499 0 01-.505.505h-4.816a.499.499 0 00-.505.506v4.815a.499.499 0 01-.505.505H16.61a.499.499 0 01-.506-.505v-4.816a.499.499 0 00-.505-.505h-4.8a.499.499 0 01-.505-.505v-3.931c0-.285.221-.506.505-.506h4.816a.499.499 0 00.505-.505v-4.815a.5.5 0 01.505-.506h3.932a.5.5 0 01.505.506v4.815c0 .284.221.505.505.505h4.8c.284 0 .505.221.505.506z" fill="url(#paint2_linear)"/><path opacity=".5" d="M58.576 39.677h-47.73a.566.566 0 01-.568-.569v-1.815c0-.316.253-.569.569-.569h47.729c.316 0 .568.253.568.569v1.815c-.016.316-.252.569-.568.569z" fill="url(#paint3_linear)"/><path d="M58.576 17.052H34.893a.566.566 0 01-.569-.569v-1.8c0-.315.253-.568.569-.568h23.683c.316 0 .568.253.568.568V16.5a.573.573 0 01-.568.553z" fill="url(#paint4_linear)"/><path opacity=".5" d="M51.566 24.725H34.893a.566.566 0 01-.569-.569v-1.815c0-.316.253-.569.569-.569h16.673c.315 0 .568.253.568.569v1.816c-.016.315-.253.568-.568.568z" fill="url(#paint5_linear)"/><path opacity=".5" d="M58.576 48.297h-47.73a.566.566 0 01-.568-.568v-1.816c0-.316.253-.568.569-.568h47.729c.316 0 .568.252.568.568v1.816c-.016.316-.252.568-.568.568z" fill="url(#paint6_linear)"/><path opacity=".5" d="M58.576 56.918h-47.73a.566.566 0 01-.568-.569v-1.815c0-.316.253-.569.569-.569h47.729c.316 0 .568.253.568.569v1.831a.573.573 0 01-.568.553z" fill="url(#paint7_linear)"/><path opacity=".5" d="M58.576 65.554h-47.73a.566.566 0 01-.568-.568V63.17c0-.316.253-.568.569-.568h47.729c.316 0 .568.252.568.568v1.816c-.016.316-.252.568-.568.568z" fill="url(#paint8_linear)"/><path opacity=".5" d="M58.576 74.175h-47.73a.566.566 0 01-.568-.569v-1.815c0-.316.253-.569.569-.569h47.729c.316 0 .568.253.568.569v1.816c-.016.315-.252.568-.568.568z" fill="url(#paint9_linear)"/><path opacity=".5" d="M58.576 82.796h-47.73a.566.566 0 01-.568-.569v-1.816c0-.315.253-.568.569-.568h47.729c.316 0 .568.253.568.568v1.816c-.016.316-.252.569-.568.569z" fill="url(#paint10_linear)"/><path opacity=".1" d="M69.422 4.31v86.396a4.306 4.306 0 01-4.31 4.31H4.31C1.926 95 0 93.074 0 90.706v-1.5C37.087 73.89 54.36 15.157 58.26 0h6.852a4.306 4.306 0 014.31 4.31z" fill="#1A6FB5" fill-opacity=".4"/></g><defs><linearGradient id="paint0_linear" x1="95" y1="126" x2="-6" y2="-5.5" gradientUnits="userSpaceOnUse"><stop offset=".306" stop-color="#5BA7FC"/><stop offset="1" stop-color="#69B8FC"/></linearGradient><linearGradient id="paint1_linear" x1="8.624" y1="7.046" x2="57.938" y2="78.031" gradientUnits="userSpaceOnUse"><stop offset=".306" stop-color="#fff"/><stop offset="1" stop-color="#fff"/></linearGradient><linearGradient id="paint2_linear" x1="10" y1="9.5" x2="25" y2="34" gradientUnits="userSpaceOnUse"><stop stop-color="#B0F4FF"/><stop offset=".369" stop-color="#80E4FD"/><stop offset="1" stop-color="#6CDDFC"/></linearGradient><linearGradient id="paint3_linear" x1="10.291" y1="38.207" x2="59.136" y2="38.207" gradientUnits="userSpaceOnUse"><stop stop-color="#6CBCFC"/><stop offset="1" stop-color="#458DFC"/></linearGradient><linearGradient id="paint4_linear" x1="34.325" y1="15.584" x2="59.136" y2="15.584" gradientUnits="userSpaceOnUse"><stop stop-color="#6CBCFC"/><stop offset="1" stop-color="#458DFC"/></linearGradient><linearGradient id="paint5_linear" x1="34.325" y1="23.262" x2="52.126" y2="23.262" gradientUnits="userSpaceOnUse"><stop stop-color="#6CBCFC"/><stop offset="1" stop-color="#458DFC"/></linearGradient><linearGradient id="paint6_linear" x1="10.291" y1="46.832" x2="59.136" y2="46.832" gradientUnits="userSpaceOnUse"><stop stop-color="#6CBCFC"/><stop offset="1" stop-color="#458DFC"/></linearGradient><linearGradient id="paint7_linear" x1="10.291" y1="55.456" x2="59.136" y2="55.456" gradientUnits="userSpaceOnUse"><stop stop-color="#6CBCFC"/><stop offset="1" stop-color="#458DFC"/></linearGradient><linearGradient id="paint8_linear" x1="10.291" y1="64.081" x2="59.136" y2="64.081" gradientUnits="userSpaceOnUse"><stop stop-color="#6CBCFC"/><stop offset="1" stop-color="#458DFC"/></linearGradient><linearGradient id="paint9_linear" x1="10.291" y1="72.705" x2="59.136" y2="72.705" gradientUnits="userSpaceOnUse"><stop stop-color="#6CBCFC"/><stop offset="1" stop-color="#458DFC"/></linearGradient><linearGradient id="paint10_linear" x1="10.291" y1="81.33" x2="59.136" y2="81.33" gradientUnits="userSpaceOnUse"><stop stop-color="#6CBCFC"/><stop offset="1" stop-color="#458DFC"/></linearGradient><clipPath id="clip0"><path fill="#fff" d="M0 0h69.422v95H0z"/></clipPath></defs></svg>